<svg xmlns="http://www.w3.org/2000/svg" width="40" height="40" fill="none"><path fill="#099250" d="M4 4a4 4 0 0 1 4-4h16l12 12v24a4 4 0 0 1-4 4H8a4 4 0 0 1-4-4V4Z"/><path fill="#fff" d="m24 0 12 12h-8a4 4 0 0 1-4-4V0Z" opacity=".3"/><path fill="#fff" d="M16.645 27.746h-1.4a1.37 1.37 0 0 0-.156-.482 1.227 1.227 0 0 0-.304-.365 1.337 1.337 0 0 0-.428-.23 1.64 1.64 0 0 0-.52-.08c-.34 0-.635.084-.886.253-.252.166-.447.409-.585.728-.139.318-.208.703-.208 1.157 0 .467.07.859.208 1.176.14.318.337.558.588.72.251.161.542.242.872.242.186 0 .357-.024.515-.073a1.232 1.232 0 0 0 .732-.563c.083-.136.14-.291.172-.466l1.4.006a2.612 2.612 0 0 1-.85 1.614c-.24.218-.528.39-.863.518a3.172 3.172 0 0 1-1.128.189 3.088 3.088 0 0 1-1.566-.397 2.813 2.813 0 0 1-1.087-1.147c-.264-.5-.396-1.107-.396-1.819 0-.713.134-1.32.403-1.822.268-.5.633-.882 1.093-1.144.46-.264.978-.396 1.553-.396.38 0 .73.053 1.055.16.326.106.614.262.866.466a2.4 2.4 0 0 1 .614.745c.16.294.262.63.306 1.01Zm4.544-.409a.808.808 0 0 0-.33-.6c-.194-.144-.457-.215-.79-.215-.225 0-.416.032-.571.096a.805.805 0 0 0-.358.259.623.623 0 0 0-.122.377.54.54 0 0 0 .074.307.768.768 0 0 0 .227.227c.096.061.207.116.332.163.126.044.26.083.403.115l.588.14c.285.064.548.15.786.256.239.107.445.238.62.393.175.156.31.339.406.55.098.21.148.453.15.725a1.81 1.81 0 0 1-.306 1.042c-.2.292-.49.52-.87.681-.377.16-.832.24-1.364.24-.529 0-.99-.081-1.381-.243a2.021 2.021 0 0 1-.914-.72c-.218-.319-.331-.714-.342-1.185h1.339c.015.22.078.403.189.55.112.145.263.254.45.329.19.072.404.108.642.108.235 0 .438-.034.611-.102a.936.936 0 0 0 .406-.284.657.657 0 0 0 .144-.419.544.544 0 0 0-.131-.37.993.993 0 0 0-.378-.256 3.842 3.842 0 0 0-.604-.192l-.712-.179c-.552-.134-.988-.344-1.307-.63-.32-.285-.479-.67-.477-1.153a1.715 1.715 0 0 1 .317-1.04c.215-.295.51-.526.885-.693.375-.166.801-.249 1.279-.249.485 0 .91.083 1.272.25.364.166.647.397.85.693.202.296.306.64.313 1.029h-1.326Zm3.529-1.883 1.582 4.974h.06l1.586-4.974h1.534L27.223 32H25.44l-2.26-6.546h1.538Z"/></svg>