<svg xmlns="http://www.w3.org/2000/svg" width="40" height="40" fill="none"><path fill="#155EEF" d="M4 4a4 4 0 0 1 4-4h16l12 12v24a4 4 0 0 1-4 4H8a4 4 0 0 1-4-4V4Z"/><path fill="#fff" d="m24 0 12 12h-8a4 4 0 0 1-4-4V0Z" opacity=".3"/><path fill="#fff" d="M12.711 32h-2.32v-6.546h2.34c.658 0 1.225.132 1.7.394.475.26.84.634 1.096 1.122.258.487.387 1.071.387 1.75 0 .683-.129 1.269-.387 1.759-.255.49-.623.866-1.102 1.128-.478.262-1.049.393-1.714.393Zm-.936-1.186h.879c.409 0 .753-.072 1.032-.217a1.4 1.4 0 0 0 .633-.68c.143-.31.214-.708.214-1.196 0-.484-.071-.879-.214-1.186a1.387 1.387 0 0 0-.63-.677c-.279-.145-.623-.218-1.032-.218h-.882v4.174Zm11.179-2.087c0 .714-.135 1.321-.406 1.822-.268.5-.635.883-1.1 1.147a3.107 3.107 0 0 1-1.56.393 3.1 3.1 0 0 1-1.565-.396 2.82 2.82 0 0 1-1.096-1.147c-.269-.5-.403-1.107-.403-1.819 0-.713.134-1.32.403-1.822.268-.5.633-.882 1.096-1.144a3.1 3.1 0 0 1 1.566-.396c.577 0 1.097.132 1.56.396.464.262.83.644 1.099 1.145.27.5.406 1.108.406 1.821Zm-1.403 0c0-.462-.07-.852-.208-1.17a1.583 1.583 0 0 0-.578-.722 1.556 1.556 0 0 0-.876-.246c-.335 0-.627.082-.876.246-.25.164-.443.405-.581.723-.137.317-.205.707-.205 1.17 0 .462.068.851.205 1.169.138.318.332.558.581.722.25.164.541.246.876.246.335 0 .626-.082.876-.246.249-.164.442-.404.578-.722.139-.317.208-.707.208-1.17Zm8.203-.98h-1.4a1.37 1.37 0 0 0-.156-.483 1.227 1.227 0 0 0-.304-.365 1.338 1.338 0 0 0-.428-.23 1.64 1.64 0 0 0-.521-.08c-.339 0-.634.084-.885.253-.252.166-.447.409-.585.728-.139.318-.208.703-.208 1.157 0 .467.07.859.208 1.176.14.318.336.558.588.72.251.161.542.242.872.242.186 0 .357-.024.515-.073a1.232 1.232 0 0 0 .732-.563c.083-.136.14-.291.172-.466l1.4.006a2.614 2.614 0 0 1-.85 1.614c-.24.218-.528.39-.863.518a3.172 3.172 0 0 1-1.128.189 3.089 3.089 0 0 1-1.566-.397 2.813 2.813 0 0 1-1.087-1.147c-.264-.5-.396-1.107-.396-1.819 0-.713.134-1.32.403-1.822.268-.5.633-.882 1.093-1.144.46-.264.978-.396 1.553-.396.38 0 .73.053 1.055.16.326.106.614.262.866.466.251.203.456.451.613.745.16.294.262.63.307 1.01Z"/></svg>