<svg xmlns="http://www.w3.org/2000/svg" width="40" height="40" fill="none"><path fill="#155EEF" d="M4 4a4 4 0 0 1 4-4h16l12 12v24a4 4 0 0 1-4 4H8a4 4 0 0 1-4-4V4Z"/><path fill="#fff" d="m24 0 12 12h-8a4 4 0 0 1-4-4V0Z" opacity=".3"/><path fill="#fff" d="M9.565 32h-2.32v-6.546h2.34c.657 0 1.224.132 1.7.394.475.26.84.634 1.096 1.122.258.487.386 1.071.386 1.75 0 .683-.128 1.269-.386 1.759-.256.49-.623.866-1.103 1.128-.477.262-1.048.393-1.713.393Zm-.936-1.186h.878c.41 0 .754-.072 1.033-.217.281-.147.492-.374.633-.68.142-.31.214-.708.214-1.196 0-.484-.072-.879-.214-1.186a1.386 1.386 0 0 0-.63-.677c-.28-.145-.623-.218-1.032-.218h-.882v4.174Zm11.178-2.087c0 .714-.135 1.321-.405 1.822-.269.5-.635.883-1.1 1.147a3.106 3.106 0 0 1-1.56.393 3.1 3.1 0 0 1-1.566-.396 2.82 2.82 0 0 1-1.096-1.147c-.268-.5-.402-1.107-.402-1.819 0-.713.134-1.32.402-1.822.269-.5.634-.882 1.096-1.144a3.1 3.1 0 0 1 1.566-.396c.578 0 1.098.132 1.56.396.465.262.831.644 1.1 1.145.27.5.405 1.108.405 1.821Zm-1.403 0c0-.462-.069-.852-.207-1.17a1.583 1.583 0 0 0-.579-.722 1.557 1.557 0 0 0-.875-.246c-.335 0-.627.082-.876.246-.25.164-.443.405-.582.723-.136.317-.204.707-.204 1.17 0 .462.068.851.204 1.169.139.318.332.558.582.722.249.164.54.246.875.246.335 0 .627-.082.876-.246.25-.164.442-.404.579-.722.138-.317.207-.707.207-1.17Zm8.204-.98h-1.4a1.368 1.368 0 0 0-.157-.483 1.227 1.227 0 0 0-.303-.365 1.337 1.337 0 0 0-.429-.23 1.64 1.64 0 0 0-.52-.08c-.34 0-.634.084-.886.253-.251.166-.446.409-.585.728-.138.318-.207.703-.207 1.157 0 .467.069.859.207 1.176.14.318.337.558.588.72.252.161.543.242.873.242.185 0 .357-.024.514-.073a1.232 1.232 0 0 0 .732-.563c.083-.136.141-.291.173-.466l1.4.006a2.612 2.612 0 0 1-.85 1.614c-.241.218-.529.39-.863.518a3.172 3.172 0 0 1-1.128.189 3.088 3.088 0 0 1-1.566-.397 2.813 2.813 0 0 1-1.087-1.147c-.264-.5-.396-1.107-.396-1.819 0-.713.134-1.32.402-1.822.269-.5.633-.882 1.093-1.144.46-.264.978-.396 1.553-.396.38 0 .731.053 1.055.16.326.106.615.262.866.466a2.4 2.4 0 0 1 .614.745c.16.294.262.63.307 1.01Zm2.15-2.293 1.32 2.231h.05l1.326-2.23h1.563l-1.997 3.272L33.062 32h-1.591l-1.343-2.234h-.05L28.734 32H27.15l2.048-3.273-2.01-3.273h1.57Z"/></svg>