<svg width="26" height="26" viewBox="0 0 26 26" fill="none" xmlns="http://www.w3.org/2000/svg">
<path d="M7.66667 1H5.26667C3.77319 1 3.02646 1 2.45603 1.29065C1.95426 1.54631 1.54631 1.95426 1.29065 2.45603C1 3.02646 1 3.77319 1 5.26667V7.66667M7.66667 25H5.26667C3.77319 25 3.02646 25 2.45603 24.7094C1.95426 24.4537 1.54631 24.0457 1.29065 23.544C1 22.9735 1 22.2268 1 20.7333V18.3333M25 7.66667V5.26667C25 3.77319 25 3.02646 24.7094 2.45603C24.4537 1.95426 24.0457 1.54631 23.544 1.29065C22.9735 1 22.2268 1 20.7333 1H18.3333M25 18.3333V20.7333C25 22.2268 25 22.9735 24.7094 23.544C24.4537 24.0457 24.0457 24.4537 23.544 24.7094C22.9735 25 22.2268 25 20.7333 25H18.3333M18.3333 13C18.3333 15.9455 15.9455 18.3333 13 18.3333C10.0545 18.3333 7.66667 15.9455 7.66667 13C7.66667 10.0545 10.0545 7.66667 13 7.66667C15.9455 7.66667 18.3333 10.0545 18.3333 13Z" stroke="white" stroke-width="2" stroke-linecap="round" stroke-linejoin="round"/>
</svg>
