<svg width="30" height="26" viewBox="0 0 30 26" fill="none" xmlns="http://www.w3.org/2000/svg">
<path d="M4.69352 24.6372L13.4889 15.8418C14.0169 15.3138 14.2809 15.0498 14.5854 14.9509C14.8532 14.8639 15.1416 14.8639 15.4094 14.9509C15.7139 15.0498 15.9779 15.3138 16.5059 15.8418L25.2426 24.5786M17.6641 17L21.4889 13.1752C22.0169 12.6471 22.2809 12.3831 22.5854 12.2842C22.8532 12.1972 23.1416 12.1972 23.4094 12.2842C23.7139 12.3831 23.9779 12.6471 24.5059 13.1752L28.3307 17M12.3307 9C12.3307 10.4728 11.1368 11.6667 9.66406 11.6667C8.1913 11.6667 6.9974 10.4728 6.9974 9C6.9974 7.52724 8.1913 6.33333 9.66406 6.33333C11.1368 6.33333 12.3307 7.52724 12.3307 9ZM8.06406 25H21.9307C24.1709 25 25.291 25 26.1467 24.564C26.8993 24.1805 27.5113 23.5686 27.8948 22.816C28.3307 21.9603 28.3307 20.8402 28.3307 18.6V7.4C28.3307 5.15979 28.3307 4.03969 27.8948 3.18404C27.5113 2.43139 26.8993 1.81947 26.1467 1.43597C25.291 1 24.1709 1 21.9307 1H8.06406C5.82385 1 4.70375 1 3.8481 1.43597C3.09545 1.81947 2.48353 2.43139 2.10004 3.18404C1.66406 4.03969 1.66406 5.15979 1.66406 7.4V18.6C1.66406 20.8402 1.66406 21.9603 2.10004 22.816C2.48353 23.5686 3.09545 24.1805 3.8481 24.564C4.70375 25 5.82385 25 8.06406 25Z" stroke="white" stroke-width="2" stroke-linecap="round" stroke-linejoin="round"/>
</svg>
