<svg width="24" height="30" viewBox="0 0 24 30" fill="none" xmlns="http://www.w3.org/2000/svg">
<path d="M8.0026 14.3333L10.6693 17L16.6693 11M22.6693 15C22.6693 21.5446 15.5307 26.3045 12.9333 27.8198C12.6381 27.992 12.4905 28.0781 12.2822 28.1228C12.1205 28.1575 11.8847 28.1575 11.723 28.1228C11.5147 28.0781 11.3671 27.992 11.072 27.8198C8.47455 26.3045 1.33594 21.5446 1.33594 15V8.62346C1.33594 7.55744 1.33594 7.02444 1.51028 6.56626C1.6643 6.16151 1.91458 5.80036 2.23948 5.51403C2.60726 5.18991 3.10634 5.00276 4.10448 4.62845L11.2535 1.94756C11.5307 1.84361 11.6693 1.79163 11.8119 1.77103C11.9384 1.75276 12.0668 1.75276 12.1933 1.77103C12.3359 1.79163 12.4745 1.84361 12.7517 1.94756L19.9007 4.62845C20.8989 5.00276 21.3979 5.18991 21.7657 5.51403C22.0906 5.80036 22.3409 6.16151 22.4949 6.56626C22.6693 7.02444 22.6693 7.55744 22.6693 8.62346V15Z" stroke="white" stroke-width="2" stroke-linecap="round" stroke-linejoin="round"/>
</svg>
