<svg width="30" height="30" viewBox="0 0 30 30" fill="none" xmlns="http://www.w3.org/2000/svg">
<path d="M18.9974 11.0001H19.0107M10.9974 11.0001H11.0107M28.3307 15.0001C28.3307 22.3639 22.3612 28.3334 14.9974 28.3334C7.6336 28.3334 1.66406 22.3639 1.66406 15.0001C1.66406 7.63628 7.6336 1.66675 14.9974 1.66675C22.3612 1.66675 28.3307 7.63628 28.3307 15.0001ZM19.6641 11.0001C19.6641 11.3683 19.3656 11.6667 18.9974 11.6667C18.6292 11.6667 18.3307 11.3683 18.3307 11.0001C18.3307 10.6319 18.6292 10.3334 18.9974 10.3334C19.3656 10.3334 19.6641 10.6319 19.6641 11.0001ZM11.6641 11.0001C11.6641 11.3683 11.3656 11.6667 10.9974 11.6667C10.6292 11.6667 10.3307 11.3683 10.3307 11.0001C10.3307 10.6319 10.6292 10.3334 10.9974 10.3334C11.3656 10.3334 11.6641 10.6319 11.6641 11.0001ZM14.9974 22.3334C18.3314 22.3334 20.9974 19.8894 20.9974 17.6667H8.9974C8.9974 19.8894 11.6634 22.3334 14.9974 22.3334Z" stroke="white" stroke-width="2" stroke-linecap="round" stroke-linejoin="round"/>
</svg>
