<?xml version="1.0" encoding="UTF-8"?>
<svg id="Layer_1" data-name="Layer 1" xmlns="http://www.w3.org/2000/svg" viewBox="0 0 100 100">
  <defs>
    <style>
      .cls-1 {
        stroke-width: 0px;
      }
    </style>
  </defs>
  <path class="cls-1" d="M49.87,52.38c-11.59,0-23.19,0-34.78.01-.82,0-1.57-.63-1.72-1.32-.25-1.17.61-2.14,1.63-2.13.39,0,.78,0,1.17,0,.16,0,.23-.04.27-.21.45-2.24.91-4.48,1.37-6.72.53-2.6,1.07-5.2,1.6-7.8.36-1.76.72-3.53,1.08-5.29.35-1.72.68-3.44,1.06-5.15.35-1.56,1.06-2.96,2.09-4.18,1-1.18,2.2-2.1,3.61-2.74.96-.43,1.95-.77,3-.8,2.08-.07,4.16-.12,6.24-.08,1.58.03,3.06.54,4.47,1.26,1.87.95,3.77,1.84,5.65,2.78.61.3,1.22.56,1.88.7,1.17.26,2.34.24,3.45-.21,1.18-.48,2.31-1.06,3.45-1.61,1.44-.69,2.87-1.42,4.32-2.09,1.02-.48,2.11-.77,3.23-.79,1.91-.04,3.83-.1,5.74-.03,2.37.08,4.49.91,6.28,2.48,1.83,1.59,2.91,3.62,3.37,6,.37,1.93.78,3.84,1.17,5.76.52,2.54,1.04,5.07,1.56,7.61.56,2.75,1.12,5.5,1.69,8.25.18.89.37,1.79.54,2.68.03.16.1.2.25.2.49,0,.98-.02,1.47.04.73.08,1.35.86,1.38,1.61.04.86-.61,1.62-1.33,1.77-.11.02-.23.03-.35.03-4.46,0-8.92,0-13.37,0-7.16,0-14.32,0-21.48,0ZM19.92,48.92h59.9c-.19-.91-.38-1.79-.56-2.68-.46-2.25-.91-4.5-1.37-6.75-.46-2.24-.92-4.48-1.38-6.73-.47-2.31-.95-4.61-1.42-6.92-.21-1.05-.41-2.09-.95-3.04-.65-1.14-1.56-2.02-2.71-2.64-1.09-.59-2.28-.79-3.5-.79-1.49,0-2.99.02-4.48.04-.81,0-1.59.17-2.32.52-1.53.73-3.05,1.48-4.57,2.22-1.3.63-2.56,1.37-3.96,1.77-1.42.41-2.85.49-4.31.26-1.21-.19-2.33-.64-3.42-1.18-1.72-.85-3.46-1.67-5.17-2.56-1.2-.62-2.43-1.07-3.79-1.07-1.54,0-3.09.03-4.63.03-.71,0-1.4.14-2.07.37-1.18.4-2.15,1.1-2.94,2.05-.77.92-1.22,2-1.45,3.18-.53,2.66-1.08,5.32-1.63,7.98-.45,2.18-.89,4.35-1.34,6.53-.44,2.13-.87,4.27-1.31,6.4-.2.99-.4,1.98-.61,2.99Z"/>
  <path class="cls-1" d="M54.07,75.29h-8.4c-.66,4.02-2.71,7.13-6.23,9.23-2.13,1.27-4.47,1.82-6.93,1.7-3.03-.15-5.72-1.24-7.97-3.29-2.24-2.05-3.58-4.6-4.03-7.64-.1,0-.19,0-.28,0-.8,0-1.6,0-2.41,0-.98,0-1.76-.77-1.76-1.71,0-1,.75-1.77,1.75-1.78.89,0,1.77,0,2.69,0,.6-3.79,2.47-6.79,5.68-8.9,2.26-1.49,4.77-2.14,7.47-2.03,1.48.06,2.91.38,4.28.95,1.37.57,2.62,1.35,3.71,2.35,1.08,1,1.99,2.14,2.67,3.46.69,1.31,1.13,2.7,1.35,4.17h8.41c.58-3.67,2.36-6.6,5.41-8.72,2.3-1.6,4.89-2.33,7.69-2.21,3.05.13,5.74,1.22,8,3.27,2.26,2.05,3.6,4.62,4.05,7.67.11,0,.2,0,.29,0,.92.01,1.84-.02,2.76.06.65.05,1.08.49,1.29,1.1.23.64.11,1.22-.34,1.74-.38.43-.86.59-1.42.59-.85,0-1.7,0-2.58,0-.58,3.67-2.36,6.6-5.4,8.71-2.29,1.6-4.88,2.33-7.67,2.22-3.05-.12-5.75-1.21-8.03-3.27-2.26-2.05-3.6-4.62-4.06-7.66ZM33.1,64.34c-5.07-.06-9.01,4.06-9.23,8.75-.25,5.39,4.2,9.97,9.78,9.65,4.47-.25,8.93-4.1,8.62-9.79-.25-4.55-4.11-8.64-9.18-8.61ZM66.66,64.34c-4.91-.11-9.56,4.13-9.21,9.78.29,4.73,4.16,8.66,9.21,8.64,5.32-.02,9.18-4.3,9.2-9.2.02-5.08-4.2-9.28-9.19-9.22Z"/>
</svg>