<svg width="132" height="98" viewBox="0 0 132 98" fill="none" xmlns="http://www.w3.org/2000/svg">
<g clip-path="url(#clip0_66_9022)">
<path d="M82.806 9.62588C79.7262 11.7802 78.2243 12.8345 73.9868 12.8345C69.7495 12.8345 67.0573 9.92748 68.2375 4.21226L65.9985 0L63.7596 4.21226C64.9398 9.92748 62.141 12.8345 58.0101 12.8345C53.8791 12.8345 52.2709 11.7802 49.191 9.62588C44.698 11.0072 38.6775 10.9996 32.9736 8.3916C34.3035 22.3591 43.1275 29.0271 62.9668 25.3244C59.0815 29.4428 56.9362 33.8351 56.3587 37.5911C58.8561 39.35 62.2778 41.109 65.9985 41.109C69.7191 41.109 73.1409 39.35 75.6382 37.5911C75.0607 33.8351 72.9154 29.4453 69.0303 25.3244C88.8719 29.0271 97.6936 22.3591 99.0233 8.3916C93.3195 10.9996 87.2991 11.0072 82.806 9.62588Z" fill="#D14152"/>
<path d="M16.9237 68.6102H12.9953L4.19395 55.2308V68.6102H0.265625V48.9301H4.19395L12.9953 62.4211V48.9301H16.9237V68.6102Z" fill="#93343F"/>
<path d="M31.2006 53.9204C32.3984 54.5516 33.3407 55.4665 34.0272 56.6653C34.7135 57.8641 35.0579 59.2708 35.0579 60.8877C35.0579 62.5047 34.7135 63.9087 34.0272 65.0974C33.3407 66.286 32.3984 67.2009 31.2006 67.8422C30.0026 68.4835 28.6526 68.8028 27.148 68.8028C25.6436 68.8028 24.2937 68.4835 23.0956 67.8422C21.8976 67.2009 20.9555 66.286 20.2691 65.0974C19.5828 63.9087 19.2383 62.5047 19.2383 60.8877C19.2383 59.2708 19.5828 57.8641 20.2691 56.6653C20.9555 55.4665 21.8976 54.5516 23.0956 53.9204C24.2937 53.2893 25.6436 52.9726 27.148 52.9726C28.6526 52.9726 30.0026 53.2893 31.2006 53.9204ZM24.3621 57.5296C23.5997 58.2999 23.2198 59.4203 23.2198 60.8877C23.2198 62.3552 23.5997 63.4754 24.3621 64.2458C25.1244 65.0163 26.0513 65.4016 27.148 65.4016C28.2447 65.4016 29.1718 65.0163 29.9342 64.2458C30.6965 63.4754 31.0764 62.3552 31.0764 60.8877C31.0764 59.4203 30.6965 58.2999 29.9342 57.5296C29.1718 56.759 28.2447 56.3739 27.148 56.3739C26.0513 56.3739 25.1244 56.759 24.3621 57.5296Z" fill="#93343F"/>
<path d="M43.3857 53.7943C44.3329 53.2265 45.3916 52.9452 46.5619 52.9452V57.155H45.4196C42.5398 57.155 41.1011 58.4932 41.1011 61.1694V68.6107H37.1729V53.1682H41.1011V56.1234C41.6761 55.1375 42.4384 54.362 43.3857 53.7968V53.7943Z" fill="#93343F"/>
<path d="M56.8475 65.2372V68.6106H54.786C53.0586 68.6106 51.7364 68.1924 50.8171 67.3559C49.8977 66.5196 49.4392 65.1256 49.4392 63.1741V56.4831H47.2939V53.1655H49.4392V49.3461H53.3676V53.1655H56.8223V56.4831H53.3676V63.2274C53.3676 63.97 53.5171 64.492 53.8133 64.7886C54.1097 65.0852 54.6111 65.2346 55.3179 65.2346H56.8502L56.8475 65.2372Z" fill="#93343F"/>
<path d="M72.5104 54.7007C73.569 55.8715 74.0984 57.5163 74.0984 59.6352V68.6097H70.1979V60.0813C70.1979 58.8545 69.8814 57.9017 69.2507 57.2249C68.62 56.5456 67.7564 56.2086 66.6597 56.2086C65.5629 56.2086 64.6538 56.5711 63.9851 57.2958C63.3165 58.0207 62.9821 59.0623 62.9821 60.4184V68.6123H59.0537V47.9843H62.9821V56.2619C63.3898 55.2202 64.0637 54.4091 65.0007 53.8237C65.9378 53.2382 67.0219 52.9468 68.2452 52.9468C70.0282 52.9468 71.4492 53.5322 72.5078 54.7032L72.5104 54.7007Z" fill="#93343F"/>
<path d="M81.0439 65.5993H87.6468V68.6102H77.1182V48.9301H81.0464V65.5993H81.0439Z" fill="#D14152"/>
<path d="M98.4214 53.8926C99.351 54.5059 100.01 55.3321 100.4 56.3739V53.1677H104.3V68.6103H100.4V65.3761C100.01 66.4179 99.351 67.2492 98.4214 67.8701C97.492 68.4935 96.3775 68.8028 95.0781 68.8028C93.7789 68.8028 92.6087 68.486 91.5677 67.8549C90.5268 67.2238 89.7163 66.3089 89.1312 65.11C88.5461 63.9114 88.2549 62.5047 88.2549 60.8877C88.2549 59.2708 88.5486 57.8641 89.1312 56.6653C89.7163 55.4665 90.5293 54.5516 91.5677 53.9204C92.6087 53.2893 93.7764 52.9726 95.0781 52.9726C96.38 52.9726 97.492 53.2793 98.4214 53.8926ZM93.3509 57.6005C92.6087 58.3988 92.2364 59.4963 92.2364 60.8902C92.2364 62.2842 92.6087 63.3765 93.3509 64.1647C94.0929 64.9555 95.0781 65.3483 96.3041 65.3483C97.5299 65.3483 98.4721 64.9453 99.242 64.1369C100.012 63.3284 100.397 62.2461 100.397 60.8902C100.397 59.5342 100.012 58.4241 99.242 57.6157C98.4721 56.8072 97.492 56.4042 96.3041 56.4042C95.1162 56.4042 94.0929 56.8047 93.3509 57.603V57.6005Z" fill="#D14152"/>
<path d="M113.417 53.7943C114.364 53.2265 115.423 52.9452 116.593 52.9452V57.155H115.451C112.571 57.155 111.133 58.4932 111.133 61.1694V68.6107H107.204V53.1682H111.133V56.1234C111.707 55.1375 112.47 54.362 113.417 53.7968V53.7943Z" fill="#D14152"/>
<path d="M126.942 68.6106L121.843 61.8664V68.6106H117.915V47.9826H121.843V59.5779L126.914 53.1681H131.567L125.075 60.8603L131.734 68.6081H126.942V68.6106Z" fill="#D14152"/>
</g>
<path d="M58.6462 83.5458L56.1851 92.3553H54.1027L52.4493 86.0826L50.7202 92.3553L48.6504 92.3679L46.2777 83.5458H48.1708L49.7232 90.3864L51.5154 83.5458H53.4842L55.1755 90.3485L56.7405 83.5458H58.6462ZM65.227 92.3553L63.2833 88.9223H62.4504V92.3553H60.6834V83.5458H63.9901C64.6717 83.5458 65.2522 83.6678 65.7318 83.9118C66.2114 84.1474 66.569 84.4713 66.8046 84.8836C67.0486 85.2875 67.1706 85.7419 67.1706 86.2467C67.1706 86.8273 67.0023 87.3531 66.6658 87.8243C66.3292 88.2871 65.8286 88.6068 65.1639 88.7835L67.2716 92.3553H65.227ZM62.4504 87.5971H63.927C64.4066 87.5971 64.7642 87.4836 64.9998 87.2564C65.2354 87.0208 65.3532 86.6968 65.3532 86.2846C65.3532 85.8807 65.2354 85.5694 64.9998 85.3506C64.7642 85.1234 64.4066 85.0098 63.927 85.0098H62.4504V87.5971ZM71.4191 84.972V87.1807H74.3851V88.5816H71.4191V90.9165H74.7637V92.3553H69.6522V83.5332H74.7637V84.972H71.4191ZM84.7876 92.3553H83.0207L79.0198 86.3098V92.3553H77.2529V83.5332H79.0198L83.0207 89.5913V83.5332H84.7876V92.3553Z" fill="#93343F"/>
<defs>
<clipPath id="clip0_66_9022">
<rect width="131.469" height="69.9413" fill="white" transform="translate(0.265625)"/>
</clipPath>
</defs>
</svg>
