<svg width="132" height="96" viewBox="0 0 132 96" fill="none" xmlns="http://www.w3.org/2000/svg">
<g id="Wrenn Dark mode ">
<path id="Vector" d="M82.5394 9.62588C79.4596 11.7802 77.9577 12.8345 73.7202 12.8345C69.4829 12.8345 66.7907 9.92748 67.9709 4.21226L65.7319 0L63.493 4.21226C64.6732 9.92748 61.8744 12.8345 57.7435 12.8345C53.6125 12.8345 52.0043 11.7802 48.9244 9.62588C44.4314 11.0072 38.4109 10.9996 32.707 8.3916C34.0369 22.3591 42.8609 29.0271 62.7002 25.3244C58.8149 29.4428 56.6696 33.8351 56.0921 37.5911C58.5895 39.35 62.0112 41.109 65.7319 41.109C69.4525 41.109 72.8743 39.35 75.3716 37.5911C74.7941 33.8351 72.6488 29.4453 68.7637 25.3244C88.6053 29.0271 97.427 22.3591 98.7567 8.3916C93.0529 10.9996 87.0325 11.0072 82.5394 9.62588Z" fill="#D14152"/>
<path id="Vector_2" d="M126.677 68.6107L121.579 61.8665V68.6107H117.65V47.9827H121.579V59.5779L126.649 53.1681H131.302L124.811 60.8603L131.469 68.6082H126.677V68.6107Z" fill="#BBAFB1"/>
<path id="Vector_3" d="M72.2438 54.7007C73.3024 55.8716 73.8318 57.5164 73.8318 59.6353V68.6097H69.9313V60.0814C69.9313 58.8546 69.6148 57.9017 68.9841 57.2249C68.3534 56.5457 67.4898 56.2086 66.3931 56.2086C65.2963 56.2086 64.3872 56.5712 63.7185 57.2959C63.0498 58.0208 62.7155 59.0624 62.7155 60.4184V68.6124H58.7871V47.9844H62.7155V56.2619C63.1232 55.2203 63.7971 54.4091 64.7341 53.8238C65.6712 53.2383 66.7553 52.9469 67.9786 52.9469C69.7616 52.9469 71.1826 53.5322 72.2412 54.7032L72.2438 54.7007Z" fill="#D14152"/>
<path id="Vector_4" d="M16.6581 68.6103H12.7297L3.92833 55.2309V68.6103H0V48.9302H3.92833L12.7297 62.4212V48.9302H16.6581V68.6103Z" fill="#D14152"/>
<path id="Vector_5" d="M80.7793 65.5993H87.3822V68.6103H76.8535V48.9302H80.7818V65.5993H80.7793Z" fill="#BBAFB1"/>
<path id="Vector_6" d="M56.5809 65.2373V68.6107H54.5194C52.792 68.6107 51.4698 68.1925 50.5505 67.3561C49.6311 66.5198 49.1726 65.1258 49.1726 63.1742V56.4832H47.0273V53.1657H49.1726V49.3462H53.101V53.1657H56.5556V56.4832H53.101V63.2275C53.101 63.9701 53.2505 64.4921 53.5467 64.7887C53.8431 65.0853 54.3445 65.2347 55.0513 65.2347H56.5836L56.5809 65.2373Z" fill="#D14152"/>
<path id="Vector_7" d="M43.1191 53.7944C44.0663 53.2266 45.125 52.9453 46.2953 52.9453V57.1551H45.153C42.2732 57.1551 40.8345 58.4933 40.8345 61.1696V68.6108H36.9062V53.1683H40.8345V56.1235C41.4095 55.1376 42.1718 54.3621 43.1191 53.7969V53.7944Z" fill="#D14152"/>
<path id="Vector_8" d="M113.152 53.7944C114.1 53.2266 115.158 52.9453 116.328 52.9453V57.1551H115.186C112.306 57.1551 110.868 58.4933 110.868 61.1696V68.6108H106.939V53.1683H110.868V56.1235C111.443 55.1376 112.205 54.3621 113.152 53.7969V53.7944Z" fill="#BBAFB1"/>
<path id="Vector_9" d="M30.935 53.9205C32.1328 54.5517 33.0751 55.4666 33.7615 56.6654C34.4478 57.8642 34.7923 59.2709 34.7923 60.8878C34.7923 62.5048 34.4478 63.9088 33.7615 65.0975C33.0751 66.2861 32.1328 67.201 30.935 67.8423C29.7369 68.4836 28.387 68.8029 26.8824 68.8029C25.378 68.8029 24.028 68.4836 22.83 67.8423C21.632 67.201 20.6899 66.2861 20.0034 65.0975C19.3171 63.9088 18.9727 62.5048 18.9727 60.8878C18.9727 59.2709 19.3171 57.8642 20.0034 56.6654C20.6899 55.4666 21.632 54.5517 22.83 53.9205C24.028 53.2894 25.378 52.9727 26.8824 52.9727C28.387 52.9727 29.7369 53.2894 30.935 53.9205ZM24.0964 57.5297C23.3341 58.3 22.9542 59.4204 22.9542 60.8878C22.9542 62.3553 23.3341 63.4755 24.0964 64.2459C24.8588 65.0164 25.7857 65.4017 26.8824 65.4017C27.9791 65.4017 28.9062 65.0164 29.6685 64.2459C30.4309 63.4755 30.8108 62.3553 30.8108 60.8878C30.8108 59.4204 30.4309 58.3 29.6685 57.5297C28.9062 56.7591 27.9791 56.374 26.8824 56.374C25.7857 56.374 24.8588 56.7591 24.0964 57.5297Z" fill="#D14152"/>
<path id="Vector_10" d="M98.1548 53.8927C99.0844 54.506 99.7429 55.3322 100.133 56.374V53.1678H104.033V68.6104H100.133V65.3762C99.7429 66.418 99.0844 67.2493 98.1548 67.8701C97.2254 68.4936 96.1109 68.8029 94.8115 68.8029C93.5123 68.8029 92.3421 68.4861 91.3011 67.855C90.2602 67.2239 89.4497 66.309 88.8646 65.1101C88.2795 63.9115 87.9883 62.5048 87.9883 60.8878C87.9883 59.2709 88.282 57.8642 88.8646 56.6654C89.4497 55.4666 90.2627 54.5517 91.3011 53.9205C92.3421 53.2894 93.5098 52.9727 94.8115 52.9727C96.1134 52.9727 97.2254 53.2794 98.1548 53.8927ZM93.0843 57.6006C92.3421 58.3989 91.9698 59.4963 91.9698 60.8903C91.9698 62.2843 92.3421 63.3766 93.0843 64.1648C93.8263 64.9556 94.8115 65.3484 96.0375 65.3484C97.2633 65.3484 98.2055 64.9454 98.9754 64.1369C99.7454 63.3285 100.13 62.2462 100.13 60.8903C100.13 59.5343 99.7454 58.4242 98.9754 57.6158C98.2055 56.8073 97.2254 56.4043 96.0375 56.4043C94.8496 56.4043 93.8263 56.8048 93.0843 57.6031V57.6006Z" fill="#BBAFB1"/>
<path id="WREN" d="M58.8148 82.1906L56.3537 91H54.2712L52.6179 84.7274L50.8888 91L48.819 91.0126L46.4462 82.1906H48.3394L49.8917 89.0311L51.6839 82.1906H53.6528L55.344 88.9933L56.909 82.1906H58.8148ZM65.3955 91L63.4519 87.5671H62.6189V91H60.852V82.1906H64.1587C64.8402 82.1906 65.4208 82.3126 65.9004 82.5566C66.38 82.7922 66.7376 83.1161 66.9731 83.5284C67.2172 83.9323 67.3392 84.3866 67.3392 84.8914C67.3392 85.472 67.1709 85.9979 66.8343 86.4691C66.4978 86.9318 65.9971 87.2516 65.3324 87.4283L67.4401 91H65.3955ZM62.6189 86.2419H64.0956C64.5752 86.2419 64.9328 86.1283 65.1683 85.9011C65.4039 85.6655 65.5217 85.3416 65.5217 84.9293C65.5217 84.5254 65.4039 84.2141 65.1683 83.9954C64.9328 83.7682 64.5752 83.6546 64.0956 83.6546H62.6189V86.2419ZM71.5877 83.6167V85.8254H74.5536V87.2263H71.5877V89.5612H74.9323V91H69.8208V82.1779H74.9323V83.6167H71.5877ZM84.9562 91H83.1892L79.1884 84.9546V91H77.4214V82.1779H79.1884L83.1892 88.236V82.1779H84.9562V91Z" fill="#BBAFB1"/>
</g>
</svg>
