<svg xmlns="http://www.w3.org/2000/svg" width="40" height="40" fill="none"><path fill="#D92D20" d="M4 4a4 4 0 0 1 4-4h16l12 12v24a4 4 0 0 1-4 4H8a4 4 0 0 1-4-4V4Z"/><path fill="#fff" d="m24 0 12 12h-8a4 4 0 0 1-4-4V0Z" opacity=".3"/><path fill="#fff" d="M11.75 32v-6.546h2.582c.496 0 .919.095 1.268.285.35.188.616.448.8.783.185.332.277.716.277 1.15 0 .435-.093.819-.28 1.151a1.94 1.94 0 0 1-.816.777c-.354.185-.782.278-1.285.278H12.65v-1.11h1.423c.266 0 .485-.045.658-.137a.912.912 0 0 0 .39-.386c.087-.167.13-.357.13-.572 0-.218-.043-.407-.13-.57a.875.875 0 0 0-.39-.38c-.175-.091-.396-.137-.665-.137h-.933V32h-1.384Zm8.146 0h-2.32v-6.546h2.34c.658 0 1.225.132 1.7.394.475.26.84.634 1.096 1.122.258.487.387 1.071.387 1.75 0 .683-.129 1.269-.387 1.759-.256.49-.623.866-1.102 1.128-.478.262-1.049.393-1.713.393Zm-.936-1.186h.879c.41 0 .753-.072 1.032-.217.282-.147.492-.374.633-.68.143-.31.214-.708.214-1.196 0-.484-.071-.879-.214-1.186a1.386 1.386 0 0 0-.63-.677c-.279-.145-.623-.218-1.032-.218h-.882v4.174ZM24.124 32v-6.546h4.334v1.142h-2.95v1.56h2.662v1.14h-2.662V32h-1.384Z"/></svg>