<svg width="14" height="14" fill="none" xmlns="http://www.w3.org/2000/svg"><path d="M.875 3.111c0-.129.053-.252.148-.344a.515.515 0 0 1 .357-.142h11.104c.134 0 .262.051.357.142a.477.477 0 0 1 0 .688.515.515 0 0 1-.357.142H1.38a.515.515 0 0 1-.357-.142.477.477 0 0 1-.148-.344Zm.505 4.375h4.542a.515.515 0 0 0 .357-.142.477.477 0 0 0 0-.688.515.515 0 0 0-.357-.142H1.38a.515.515 0 0 0-.357.142.477.477 0 0 0 0 .688.515.515 0 0 0 .357.142Zm5.552 2.916H1.38a.515.515 0 0 0-.357.143.477.477 0 0 0 0 .687.515.515 0 0 0 .357.143h5.552a.515.515 0 0 0 .357-.143.477.477 0 0 0 0-.687.515.515 0 0 0-.357-.143Zm6.919.83a.505.505 0 0 1-.357.143.521.521 0 0 1-.357-.143L11.852 10a2.601 2.601 0 0 1-1.77.374 2.547 2.547 0 0 1-1.575-.866 2.372 2.372 0 0 1-.565-1.66 2.39 2.39 0 0 1 .736-1.595 2.57 2.57 0 0 1 1.657-.71 2.588 2.588 0 0 1 1.723.545c.484.38.805.92.9 1.516a2.359 2.359 0 0 1-.39 1.706l1.282 1.233a.485.485 0 0 1 .149.345.471.471 0 0 1-.15.345ZM10.465 9.43c.3 0 .592-.085.841-.245.25-.16.444-.388.558-.655.115-.266.145-.56.086-.843a1.443 1.443 0 0 0-.414-.746 1.533 1.533 0 0 0-.775-.4 1.568 1.568 0 0 0-.875.084c-.277.11-.514.297-.68.537a1.42 1.42 0 0 0 .188 1.841c.284.274.67.427 1.071.427Z" fill="#1290E0"/></svg>