<svg xmlns="http://www.w3.org/2000/svg" width="40" height="40" fill="none"><path fill="#099250" d="M4 4a4 4 0 0 1 4-4h16l12 12v24a4 4 0 0 1-4 4H8a4 4 0 0 1-4-4V4Z"/><path fill="#fff" d="m24 0 12 12h-8a4 4 0 0 1-4-4V0Z" opacity=".3"/><path fill="#fff" d="m13.148 25.454 1.32 2.231h.05l1.327-2.23h1.563l-1.998 3.272L17.454 32H15.86l-1.342-2.234h-.051L13.125 32H11.54l2.049-3.273-2.01-3.273h1.569ZM18.284 32v-6.546h1.384v5.405h2.806V32h-4.19Zm8.657-4.663a.809.809 0 0 0-.33-.6c-.193-.144-.456-.215-.789-.215-.226 0-.416.032-.572.096a.805.805 0 0 0-.358.259.623.623 0 0 0-.121.377c-.004.117.02.22.073.307a.766.766 0 0 0 .227.227c.096.061.207.116.333.163.125.044.26.083.402.115l.588.14c.286.064.548.15.787.256.238.107.445.238.62.393.174.156.31.339.406.55.098.21.148.453.15.725a1.81 1.81 0 0 1-.307 1.042c-.2.292-.49.52-.87.681-.377.16-.831.24-1.364.24-.528 0-.989-.081-1.38-.243a2.022 2.022 0 0 1-.915-.72c-.217-.319-.331-.714-.342-1.185h1.34c.014.22.077.403.188.55.113.145.263.254.45.329.19.072.404.108.643.108.234 0 .438-.034.61-.102a.936.936 0 0 0 .406-.284.657.657 0 0 0 .144-.419.544.544 0 0 0-.13-.37.992.992 0 0 0-.378-.256 3.843 3.843 0 0 0-.604-.192l-.713-.179c-.552-.134-.987-.344-1.307-.63-.32-.285-.478-.67-.476-1.153a1.716 1.716 0 0 1 .316-1.04c.215-.295.51-.526.886-.693.375-.166.8-.249 1.278-.249.486 0 .91.083 1.272.25.364.166.648.397.85.693.203.296.307.64.313 1.029h-1.326Z"/></svg>